<svg width="200" height="200" viewBox="0 0 200 200" fill="none" xmlns="http://www.w3.org/2000/svg">
<path d="M111.368 111.94C102.967 118.133 90.7895 121.437 80.3055 121.437C65.6049 121.437 52.3708 115.999 42.3586 106.956C41.572 106.245 42.2768 105.276 43.2208 105.83C54.0261 112.116 67.386 115.899 81.1864 115.899C90.4935 115.899 100.733 113.973 110.147 109.977C111.569 109.373 112.758 110.908 111.368 111.94Z" fill="#9A9A9A"/>
<path d="M114.86 107.944C113.79 106.573 107.762 107.296 105.055 107.617C104.231 107.718 104.105 107.001 104.848 106.485C109.649 103.105 117.528 104.08 118.447 105.213C119.366 106.352 118.208 114.25 113.696 118.019C113.003 118.598 112.343 118.29 112.651 117.523C113.665 114.993 115.936 109.323 114.86 107.944Z" fill="#9A9A9A"/>
<path d="M105.245 82.6275V79.3426C105.245 78.8455 105.622 78.5121 106.075 78.5121H120.782C121.254 78.5121 121.632 78.852 121.632 79.3426V82.1556C121.626 82.6275 121.229 83.2444 120.524 84.2197L112.903 95.1003C115.735 95.0309 118.725 95.4526 121.292 96.9001C121.871 97.2272 122.028 97.7056 122.072 98.1775V101.683C122.072 102.161 121.544 102.721 120.99 102.431C116.465 100.059 110.455 99.8011 105.453 102.457C104.943 102.734 104.408 102.18 104.408 101.701V98.3727C104.408 97.8376 104.414 96.9253 104.949 96.1135L113.778 83.4518H106.094C105.622 83.4518 105.245 83.1184 105.245 82.6275ZM51.5971 103.124H47.1226C46.6948 103.093 46.3549 102.771 46.3235 102.363V79.3993C46.3235 78.9398 46.7075 78.575 47.1857 78.575H51.358C51.7922 78.5937 52.1384 78.9274 52.1698 79.3426V82.3443H52.2517C53.3402 79.4432 55.3856 78.0901 58.1419 78.0901C60.9422 78.0901 62.6918 79.4432 63.9503 82.3443C65.0326 79.4432 67.4932 78.0901 70.13 78.0901C72.0052 78.0901 74.0568 78.8642 75.309 80.6009C76.7248 82.5329 76.4353 85.3394 76.4353 87.8L76.4293 102.293C76.4293 102.752 76.0452 103.123 75.5671 103.123H71.099C70.6523 103.092 70.2937 102.733 70.2937 102.293V90.1224C70.2937 89.1534 70.3816 86.7369 70.1679 85.8181C69.8343 84.2763 68.8336 83.8421 67.5374 83.8421C66.4551 83.8421 65.3221 84.5658 64.8627 85.7237C64.4035 86.8817 64.4476 88.8197 64.4476 90.1224V102.293C64.4476 102.753 64.0636 103.124 63.5854 103.124H59.1174C58.6642 103.093 58.3121 102.734 58.3121 102.293L58.3058 90.1224C58.3058 87.5612 58.7276 83.7917 55.5495 83.7917C52.334 83.7917 52.4598 87.4669 52.4598 90.1224V102.293C52.459 102.753 52.0752 103.124 51.5971 103.124ZM134.293 78.0903C140.932 78.0903 144.526 83.7917 144.526 91.0415C144.526 98.0455 140.555 103.602 134.293 103.602C127.774 103.602 124.224 97.901 124.224 90.7962C124.224 83.6469 127.818 78.0903 134.293 78.0903ZM134.331 82.7785C131.033 82.7785 130.826 87.2717 130.826 90.072C130.826 92.8787 130.781 98.8696 134.293 98.8696C137.76 98.8696 137.924 94.0367 137.924 91.0914C137.924 89.1531 137.842 86.8373 137.257 84.9998C136.754 83.4014 135.753 82.7785 134.331 82.7785ZM153.134 103.124H148.679C148.232 103.093 147.873 102.734 147.873 102.293L147.867 79.3239C147.905 78.9024 148.276 78.575 148.729 78.575H152.876C153.267 78.5937 153.587 78.8582 153.676 79.2168V82.7281H153.757C155.01 79.5879 156.765 78.0901 159.855 78.0901C161.863 78.0901 163.82 78.8138 165.078 80.796C166.249 82.6335 166.249 85.7235 166.249 87.9448V102.4C166.199 102.803 165.827 103.124 165.387 103.124H160.9C160.491 103.092 160.151 102.79 160.107 102.4V89.9272C160.107 87.4165 160.396 83.7413 157.307 83.7413C156.218 83.7413 155.217 84.4712 154.72 85.5788C154.091 86.982 154.009 88.3793 154.009 89.9272V102.293C154.003 102.753 153.613 103.124 153.134 103.124ZM101.488 98.9137C100.67 97.781 99.8014 96.8621 99.8014 94.7666V87.794C99.8014 84.8426 100.009 82.1304 97.8316 80.0978C96.1137 78.449 93.2693 77.87 91.0919 77.87C86.8377 77.87 82.0802 79.4557 81.086 84.7168C80.9789 85.2768 81.3879 85.5725 81.7528 85.6544L86.0886 86.12C86.4976 86.1011 86.7936 85.7048 86.8689 85.302C87.2403 83.4897 88.7568 82.615 90.4623 82.615C91.3874 82.615 92.432 82.9549 92.9733 83.7792C93.6027 84.6981 93.5208 85.9566 93.5208 87.0199V87.5989C90.9279 87.8946 87.536 88.0835 85.1068 89.1534C82.3003 90.3617 80.3368 92.8348 80.3368 96.4658C80.3368 101.117 83.2629 103.438 87.0326 103.438C90.2105 103.438 91.9539 102.69 94.4082 100.185C95.22 101.362 95.4906 101.934 96.9757 103.168C97.3093 103.344 97.7371 103.325 98.0328 103.061L98.039 103.074C98.9327 102.28 100.556 100.865 101.469 100.103C101.834 99.8011 101.771 99.3165 101.488 98.9137ZM92.6838 96.9001C91.9726 98.1588 90.8399 98.9327 89.5878 98.9327C87.8699 98.9327 86.8627 97.6238 86.8627 95.6917C86.8627 91.8783 90.2798 91.186 93.5208 91.186V92.155C93.5211 93.8982 93.565 95.3521 92.6838 96.9001ZM42.8307 98.9137C42.0127 97.781 41.1445 96.8621 41.1445 94.7666V87.794C41.1445 84.8426 41.3521 82.1304 39.1747 80.0978C37.4568 78.449 34.6121 77.87 32.435 77.87C28.1808 77.87 23.4296 79.4557 22.4291 84.7168C22.3283 85.2768 22.7311 85.5725 23.0959 85.6544L27.4382 86.12C27.8409 86.1011 28.1367 85.7048 28.2123 85.302C28.5836 83.4897 30.1066 82.615 31.8119 82.615C32.7307 82.615 33.7754 82.9549 34.3229 83.7792C34.9458 84.6981 34.8639 85.9566 34.8639 87.0199V87.5989C32.2713 87.8946 28.8793 88.0835 26.4502 89.1534C23.6499 90.3617 21.6802 92.8348 21.6802 96.4658C21.6802 101.117 24.6127 103.438 28.376 103.438C31.5603 103.438 33.2972 102.69 35.7516 100.185C36.5696 101.362 36.8339 101.934 38.319 103.168C38.6526 103.344 39.0804 103.325 39.3761 103.061L39.3888 103.074C40.2825 102.28 41.9059 100.865 42.8185 100.103C43.1833 99.8011 43.1202 99.3165 42.8307 98.9137ZM34.0269 96.9001C33.3157 98.1588 32.1894 98.9327 30.9309 98.9327C29.213 98.9327 28.2123 97.6238 28.2123 95.6917C28.2123 91.8783 31.6292 91.186 34.8639 91.186V92.155C34.8639 93.8982 34.9078 95.3521 34.0269 96.9001Z" fill="#9A9A9A"/>
</svg>
