<svg width="200" height="200" viewBox="0 0 200 200" fill="none" xmlns="http://www.w3.org/2000/svg">
<mask id="mask0_1089_66" style="mask-type:luminance" maskUnits="userSpaceOnUse" x="29" y="75" width="47" height="48">
<path d="M75.9649 75.9187V87.1852C75.9649 90.2166 74.7606 93.1239 72.6171 95.2674C70.4736 97.4109 67.5664 98.6151 64.535 98.6151H64.0452H63.7186C56.2076 98.9416 53.4318 103.677 52.4521 107.269C52.2079 108.067 52.0438 108.888 51.9622 109.718C51.8736 110.259 51.8191 110.804 51.7989 111.351C51.7989 113.579 51.1381 115.758 49.9002 117.611C48.6622 119.463 46.9026 120.907 44.8439 121.76C42.7852 122.613 40.5199 122.836 38.3344 122.401C36.1489 121.967 34.1414 120.893 32.5657 119.318C30.9901 117.742 29.917 115.735 29.4823 113.549C29.0476 111.364 29.2707 109.098 30.1234 107.04C30.9762 104.981 32.4202 103.221 34.273 101.983C36.1258 100.745 38.3041 100.085 40.5324 100.085C41.0797 100.066 41.6251 100.012 42.1652 99.9213C42.9959 99.8398 43.8163 99.6757 44.6145 99.4315C48.2067 98.4518 52.9419 95.5127 53.2685 88.1649V87.6751V87.3485C53.2682 84.3452 54.4499 81.4625 56.5583 79.3236C58.6666 77.1847 61.532 75.9616 64.535 75.9187H75.9649ZM54.2482 112.004C54.2804 114.128 54.9397 116.196 56.1432 117.946C57.3468 119.697 59.0409 121.053 61.0127 121.844C62.9845 122.634 65.146 122.824 67.2256 122.39C69.3052 121.956 71.2101 120.917 72.701 119.404C74.1918 117.89 75.2021 115.97 75.6049 113.884C76.0076 111.798 75.7849 109.64 74.9647 107.68C74.1444 105.72 72.7633 104.047 70.9948 102.87C69.2263 101.693 67.1493 101.065 65.0249 101.064C63.5958 101.064 62.181 101.348 60.8627 101.9C59.5445 102.452 58.3492 103.26 57.3463 104.278C56.3434 105.296 55.553 106.504 55.0212 107.83C54.4893 109.156 54.2265 110.575 54.2482 112.004ZM29.1025 86.6954C29.1025 88.8268 29.7346 90.9104 30.9187 92.6826C32.1029 94.4548 33.786 95.8361 35.7552 96.6518C37.7244 97.4674 39.8912 97.6808 41.9817 97.265C44.0721 96.8492 45.9924 95.8228 47.4995 94.3157C49.0067 92.8085 50.033 90.8883 50.4489 88.7978C50.8647 86.7074 50.6513 84.5405 49.8356 82.5713C49.0199 80.6022 47.6387 78.9191 45.8665 77.7349C44.0942 76.5507 42.0107 75.9187 39.8792 75.9187C37.0211 75.9187 34.28 77.0541 32.259 79.0751C30.2379 81.0961 29.1025 83.8372 29.1025 86.6954Z" fill="white"/>
</mask>
<g mask="url(#mask0_1089_66)">
<path d="M26 72H81.6796V127.68H26V72Z" fill="#9A9A9A"/>
</g>
<path d="M104.049 108.576C104.077 108.617 104.095 108.664 104.102 108.714C104.108 108.763 104.104 108.813 104.088 108.861C104.072 108.908 104.046 108.951 104.011 108.986C103.976 109.022 103.933 109.049 103.886 109.065C102.743 109.882 101.11 110.208 99.4774 110.208C94.9055 110.208 92.2929 107.759 92.2929 103.187V93.5535C92.2929 93.4669 92.2585 93.3838 92.1973 93.3226C92.136 93.2613 92.053 93.2269 91.9664 93.2269H89.1906C89.1296 93.2355 89.0675 93.2267 89.0114 93.2016C88.9552 93.1764 88.9073 93.1359 88.8732 93.0847C88.8391 93.0335 88.8201 92.9737 88.8185 92.9122C88.8168 92.8507 88.8326 92.79 88.864 92.7371V89.6347C88.864 89.5481 88.8984 89.465 88.9596 89.4038C89.0209 89.3425 89.1039 89.3081 89.1906 89.3081H91.9664C92.0273 89.3167 92.0894 89.3079 92.1455 89.2828C92.2017 89.2576 92.2496 89.2171 92.2837 89.1659C92.3178 89.1147 92.3368 89.0549 92.3384 88.9934C92.3401 88.9319 92.3243 88.8712 92.2929 88.8183V84.8995C92.2616 84.8466 92.2458 84.7858 92.2474 84.7243C92.2491 84.6628 92.268 84.603 92.3022 84.5519C92.3363 84.5007 92.3842 84.4601 92.4403 84.435C92.4965 84.4098 92.5586 84.401 92.6195 84.4096H96.8649C96.9258 84.401 96.9879 84.4098 97.044 84.435C97.1002 84.4601 97.1481 84.5007 97.1822 84.5519C97.2163 84.603 97.2353 84.6628 97.2369 84.7243C97.2386 84.7858 97.2228 84.8466 97.1914 84.8995V88.8183C97.1601 88.8712 97.1443 88.9319 97.1459 88.9934C97.1476 89.0549 97.1665 89.1147 97.2007 89.1659C97.2348 89.2171 97.2827 89.2576 97.3388 89.2828C97.395 89.3079 97.4571 89.3167 97.518 89.3081H102.416C102.503 89.3081 102.586 89.3425 102.647 89.4038C102.709 89.465 102.743 89.5481 102.743 89.6347V92.7371C102.774 92.79 102.79 92.8507 102.789 92.9122C102.787 92.9737 102.768 93.0335 102.734 93.0847C102.7 93.1359 102.652 93.1764 102.596 93.2016C102.54 93.2267 102.477 93.2355 102.416 93.2269H97.518C97.4314 93.2269 97.3483 93.2613 97.2871 93.3226C97.2258 93.3838 97.1914 93.4669 97.1914 93.5535V103.024C97.1914 105.147 98.1711 106.29 100.131 106.29C100.937 106.277 101.725 106.052 102.416 105.636C102.458 105.609 102.505 105.591 102.555 105.584C102.604 105.578 102.654 105.582 102.701 105.598C102.749 105.614 102.792 105.64 102.827 105.675C102.863 105.71 102.89 105.753 102.906 105.8L104.049 108.576ZM126.746 89.1448C126.807 89.1363 126.869 89.145 126.925 89.1702C126.981 89.1954 127.029 89.2359 127.063 89.2871C127.097 89.3383 127.116 89.3981 127.118 89.4596C127.119 89.5211 127.104 89.5818 127.072 89.6347L117.602 111.678C115.642 116.413 113.03 117.883 109.601 117.883C107.642 117.883 105.519 117.23 104.213 116.087C104.166 116.07 104.123 116.043 104.088 116.008C104.053 115.972 104.027 115.929 104.011 115.882C103.995 115.834 103.99 115.784 103.997 115.735C104.004 115.685 104.022 115.638 104.049 115.597L105.682 112.658C105.713 112.623 105.751 112.595 105.793 112.576C105.835 112.557 105.881 112.547 105.927 112.547C105.973 112.547 106.019 112.557 106.061 112.576C106.104 112.595 106.141 112.623 106.172 112.658C107.105 113.387 108.253 113.789 109.438 113.801C111.234 113.801 112.213 112.984 113.193 110.862L113.52 110.208C113.548 110.159 113.564 110.102 113.564 110.045C113.564 109.988 113.548 109.931 113.52 109.882L104.702 89.6347C104.671 89.5818 104.655 89.5211 104.657 89.4596C104.659 89.3981 104.678 89.3383 104.712 89.2871C104.746 89.2359 104.794 89.1954 104.85 89.1702C104.906 89.145 104.968 89.1363 105.029 89.1448H109.274C109.339 89.1364 109.404 89.1475 109.463 89.1766C109.521 89.2057 109.569 89.2515 109.601 89.3081L115.642 103.677C115.642 103.785 115.685 103.889 115.762 103.966C115.839 104.042 115.942 104.085 116.051 104.085C116.159 104.085 116.263 104.042 116.339 103.966C116.416 103.889 116.459 103.785 116.459 103.677L122.5 89.3081C122.517 89.2611 122.544 89.2185 122.579 89.1835C122.615 89.1485 122.658 89.1222 122.705 89.1064C122.753 89.0906 122.803 89.0859 122.852 89.0926C122.902 89.0992 122.949 89.1171 122.99 89.1448H126.746ZM138.665 101.228L135.4 104.33C135.343 104.362 135.297 104.41 135.268 104.469C135.239 104.527 135.228 104.592 135.236 104.657V109.555C135.268 109.608 135.284 109.669 135.282 109.73C135.28 109.792 135.261 109.852 135.227 109.903C135.193 109.954 135.145 109.995 135.089 110.02C135.033 110.045 134.971 110.054 134.91 110.045H130.828C130.763 110.11 130.675 110.147 130.583 110.147C130.491 110.147 130.403 110.11 130.338 110.045C130.273 109.98 130.236 109.892 130.236 109.8C130.236 109.708 130.273 109.62 130.338 109.555V81.3073C130.329 81.2463 130.338 81.1842 130.363 81.1281C130.388 81.0719 130.429 81.024 130.48 80.9899C130.531 80.9558 130.591 80.9368 130.653 80.9352C130.714 80.9335 130.775 80.9493 130.828 80.9807H134.91C134.996 80.9807 135.08 81.0151 135.141 81.0763C135.202 81.1376 135.236 81.2206 135.236 81.3073V97.6356C135.193 97.7222 135.186 97.8225 135.217 97.9143C135.247 98.0062 135.313 98.0821 135.4 98.1254C135.486 98.1687 135.587 98.1759 135.678 98.1452C135.77 98.1146 135.846 98.0488 135.89 97.9621L145.36 89.1448C145.414 89.131 145.47 89.131 145.523 89.1448H150.422C150.508 89.1232 150.6 89.1368 150.677 89.1828C150.753 89.2287 150.808 89.3032 150.83 89.3898C150.852 89.4764 150.838 89.5681 150.792 89.6446C150.746 89.7212 150.672 89.7763 150.585 89.798L142.747 97.6356C142.713 97.6662 142.685 97.7039 142.666 97.7461C142.647 97.7884 142.637 97.8342 142.637 97.8805C142.637 97.9268 142.647 97.9726 142.666 98.0149C142.685 98.0571 142.713 98.0948 142.747 98.1254L151.565 109.392C151.651 109.414 151.726 109.469 151.772 109.545C151.818 109.622 151.831 109.714 151.81 109.8C151.788 109.887 151.733 109.961 151.656 110.007C151.58 110.053 151.488 110.067 151.401 110.045H146.34C146.275 110.054 146.21 110.042 146.151 110.013C146.093 109.984 146.045 109.938 146.013 109.882L139.155 101.391C139.139 101.344 139.112 101.301 139.076 101.266C139.041 101.232 138.998 101.205 138.95 101.189C138.903 101.174 138.853 101.169 138.803 101.176C138.754 101.182 138.707 101.2 138.665 101.228ZM173.608 101.065H157.933C157.872 101.056 157.81 101.065 157.754 101.09C157.698 101.115 157.65 101.156 157.615 101.207C157.581 101.258 157.562 101.318 157.561 101.379C157.559 101.441 157.575 101.501 157.606 101.554C158.423 104.33 160.872 106.126 164.301 106.126C166.587 106.126 168.22 105.473 169.689 104.167C169.72 104.132 169.758 104.104 169.8 104.085C169.842 104.066 169.888 104.056 169.934 104.056C169.98 104.056 170.026 104.066 170.069 104.085C170.111 104.104 170.148 104.132 170.179 104.167L172.302 106.616C172.337 106.647 172.364 106.684 172.383 106.727C172.402 106.769 172.412 106.815 172.412 106.861C172.412 106.907 172.402 106.953 172.383 106.995C172.364 107.038 172.337 107.075 172.302 107.106C171.233 108.164 169.954 108.987 168.548 109.521C167.142 110.056 165.64 110.29 164.138 110.208C158.096 110.208 154.014 106.943 152.871 102.044C152.489 100.278 152.55 98.445 153.049 96.7083C153.547 94.9716 154.469 93.3855 155.73 92.0917C156.992 90.7979 158.554 89.8368 160.277 89.294C162.001 88.7513 163.832 88.644 165.607 88.9816C170.506 89.9613 173.935 93.8801 173.935 99.595V100.738C173.935 100.825 173.9 100.908 173.839 100.969C173.778 101.03 173.695 101.065 173.608 101.065ZM157.933 97.7989H168.873C168.959 97.7989 169.042 97.7645 169.104 97.7032C169.165 97.642 169.199 97.5589 169.199 97.4723C168.71 94.6965 166.424 92.7371 163.484 92.7371C160.382 92.7371 158.259 94.5332 157.606 97.4723C157.606 97.5589 157.641 97.642 157.702 97.7032C157.763 97.7645 157.846 97.7989 157.933 97.7989Z" fill="#9A9A9A"/>
</svg>
