<svg width="200" height="200" viewBox="0 0 200 200" fill="none" xmlns="http://www.w3.org/2000/svg">
<g clip-path="url(#clip0_1089_72)">
<g clip-path="url(#clip1_1089_72)">
<path d="M64.3434 93.8589L59.5906 90.1031L59.053 89.6772H59.0432L58.9627 89.6164C58.2896 89.1572 54.9517 86.4767 52.6833 84.6223L52.6342 84.585C50.9741 83.392 47.0495 82.1773 44.0727 86.1058L44.0354 86.1588C43.0915 87.5933 37.55 96.2039 35.4385 99.4888C33.3271 96.2039 27.7855 87.5933 26.8416 86.1588L26.8043 86.1058C23.8275 82.1812 19.9029 83.3939 18.2428 84.585L18.1937 84.6223C15.9312 86.4708 12.5933 89.1572 11.9143 89.6164L11.8417 89.6714L11.8103 89.691L6.6298 93.7647L6.51991 93.8648C5.31702 95.156 3.63924 98.4311 5.89786 101.581C6.6455 102.617 8.06818 103.969 10.3602 103.969C11.4453 103.969 12.7306 103.667 14.2338 102.888C15.1639 102.407 18.5508 99.634 20.2738 98.1956L29.7714 112.732C30.0363 113.231 31.9299 116.583 35.3227 116.583C38.7587 116.583 40.6563 113.639 40.8172 113.372L45.2952 106.408L50.5934 98.1976C52.3222 99.636 55.6955 102.407 56.6295 102.888C58.1346 103.672 59.418 103.969 60.5031 103.969C62.8049 103.969 64.2178 102.615 64.9654 101.575C67.226 98.4252 65.5463 95.1501 64.3434 93.8589ZM45.6759 87.2695C48.1268 84.0631 51.0467 85.8959 51.4628 86.1726C53.1837 87.5795 54.4729 88.6333 55.4482 89.4163C55.2425 89.4678 55.0406 89.5333 54.8438 89.6125L54.7104 89.6772L54.6397 89.7145C54.4063 89.8231 54.1813 89.9491 53.9667 90.0913C53.3896 90.4434 52.8998 90.9218 52.5342 91.4904C52.0024 92.3224 49.5259 96.1745 49.5259 96.1745L49.053 96.9044L43.7077 105.225C42.5715 106.055 41.5491 106.402 40.6877 106.265C40.1105 106.166 39.5922 105.852 39.2375 105.386L36.6355 101.29C38.1956 98.8668 44.5966 88.9119 45.6759 87.2695ZM13.3233 101.129C10.7193 102.477 8.80993 102.246 7.50892 100.421C5.75657 97.9778 7.61096 95.6289 7.92885 95.2581L12.7777 91.41C13.1349 91.2981 14.22 91.0293 15.2208 91.4276H15.2404C15.6096 91.5983 15.9536 91.8188 16.2628 92.083C16.3667 92.1837 16.4638 92.2912 16.5532 92.4049C16.5866 92.45 16.6199 92.4951 16.6533 92.5461L17.1066 93.2545L19.1827 96.5061C17.0242 98.3232 13.9806 100.79 13.3233 101.129ZM39.1394 112.332C39.1257 112.354 37.7148 114.603 35.3227 114.603C32.968 114.603 31.5276 111.814 31.5139 111.789L31.4884 111.74L21.8044 96.9162L21.3314 96.1823C21.3314 96.1823 19.3181 93.0426 18.5332 91.824L18.4135 91.6278C18.3342 91.492 18.247 91.361 18.1525 91.2353C17.9213 90.9221 17.6494 90.641 17.344 90.3994C16.9614 90.09 16.5374 89.8357 16.0842 89.6439L16.0195 89.6125C15.854 89.548 15.6849 89.4929 15.5132 89.4477L15.4327 89.4221C16.4139 88.6372 17.6992 87.5854 19.4221 86.1765C19.8519 85.8821 22.758 84.0748 25.209 87.2734C26.4335 89.1376 34.5103 101.7 34.5928 101.828L37.5715 106.461C37.5798 106.475 37.5889 106.489 37.599 106.502C38.2527 107.418 39.2388 108.041 40.3463 108.239C40.5899 108.281 40.8368 108.302 41.0841 108.302C41.31 108.301 41.5357 108.284 41.7591 108.251L39.1394 112.332ZM63.3544 100.421C62.0455 102.246 60.144 102.477 57.54 101.131C56.8827 100.79 53.8391 98.3232 51.6747 96.5218L54.1452 92.6855L54.1727 92.6403C54.3588 92.3456 54.5952 92.0859 54.8713 91.8731C55.1096 91.7127 55.3587 91.5691 55.617 91.4433L55.6856 91.4178L55.7759 91.3845L55.8505 91.3609C56.5817 91.1721 57.3512 91.1918 58.0718 91.4178L62.9305 95.2639C63.2641 95.6368 65.1224 97.9582 63.3544 100.421Z" fill="#9A9A9A"/>
<path d="M90.193 100.864V107.715C90.1869 108.163 90.2417 108.61 90.3558 109.043C90.6776 110.011 91.5646 110.495 92.6929 110.221C93.0952 110.14 93.1757 110.262 93.2169 110.664C93.2581 111.066 93.3778 111.914 93.4582 112.558C93.4975 112.799 93.4975 112.84 93.2973 112.88C92.0473 113.001 90.8386 113.123 89.6298 112.683C88.421 112.244 87.2927 110.829 86.9296 109.218C86.7288 108.305 86.6477 107.371 86.6883 106.437C86.6883 102.568 86.647 98.6999 86.6883 94.8303C86.7043 94.048 86.595 93.2683 86.3645 92.5206C85.8817 91.0705 84.8339 90.264 83.1424 90.1443C82.616 90.1041 82.0867 90.1445 81.5725 90.264C80.7883 90.3948 80.0726 90.7901 79.5442 91.3841C79.0159 91.9782 78.7067 92.7352 78.6683 93.5292C78.6271 94.0532 78.6271 94.6164 78.6271 95.1403C78.6271 95.4641 78.7075 95.5033 78.9901 95.5033H81.5706C81.8924 95.5033 81.9728 95.625 81.9728 95.9468C81.9316 96.5237 81.9316 97.1027 81.9728 97.6795C81.9728 98.0014 81.8924 98.072 81.5706 98.072H79.0706C78.7075 98.0328 78.6271 98.1544 78.6271 98.5155V109.599C78.6271 109.962 78.5878 110.123 78.1443 110.123H75.5247C75.1616 110.123 75.0812 110.001 75.0812 109.679C75.1224 106.053 75.0812 102.385 75.0812 98.7588C75.0812 98.072 75.0812 98.072 74.3963 98.072H72.6636C72.4674 98.072 72.381 98.0328 72.381 97.7914C72.381 97.55 72.3418 96.4609 72.3418 95.8153C72.3418 95.4543 72.4615 95.4935 72.7029 95.4935H74.7182C75.0007 95.5347 75.1224 95.4543 75.1224 95.1305C75.0556 94.3081 75.1098 93.4803 75.2833 92.6737C76.0486 89.8107 77.9834 88.1996 80.764 87.6345C82.5301 87.2445 84.369 87.3422 86.0839 87.917C88.5014 88.7628 89.669 90.5779 90.0732 92.9955C90.2137 94.0358 90.2538 95.0872 90.193 96.1352V100.864Z" fill="#9A9A9A"/>
<path d="M107.483 107.109C105.105 109.041 102.446 109.285 99.6337 108.639C96.8217 107.994 96.1172 106.626 95.7561 104.361C95.6745 103.787 95.6339 103.208 95.6345 102.629C95.6345 100.413 95.6345 98.1957 95.5933 95.9803C95.5933 95.6172 95.7149 95.5368 96.0779 95.5368H98.6976C99.0607 95.5368 99.1411 95.6565 99.1411 96.0195V101.42C99.1418 102.165 99.2228 102.909 99.3825 103.637C99.4973 104.22 99.7927 104.751 100.227 105.156C100.661 105.561 101.211 105.819 101.8 105.894C102.762 106.062 103.746 106.048 104.702 105.853C106.233 105.49 107.159 104.442 107.402 102.713C107.482 102.342 107.522 101.964 107.522 101.585C107.522 99.691 107.522 97.7974 107.483 95.8939C107.483 95.5721 107.603 95.5015 107.926 95.5015H110.674C110.915 95.5015 111.037 95.5427 111.037 95.8233C111.037 100.095 111.076 104.328 110.995 108.559C110.915 112.789 108.295 115.409 104.267 115.819C102.13 116.061 100.034 115.858 98.1011 114.811C96.806 114.164 95.7563 113.114 95.1105 111.818C94.9496 111.536 95.0301 111.455 95.3068 111.333L97.8048 110.407C98.001 110.327 98.1266 110.286 98.2483 110.527C99.2549 112.664 101.388 113.307 103.568 113.066C105.748 112.825 107.194 111.455 107.436 109.077C107.491 108.422 107.507 107.765 107.483 107.109Z" fill="#9A9A9A"/>
<path d="M116.631 98.4055V91.3922C116.59 91.0312 116.67 90.9095 117.023 90.9488H119.724C120.087 90.9095 120.167 91.0312 120.167 91.353C120.126 92.601 120.167 93.851 120.126 95.1403C120.126 95.4228 120.206 95.5445 120.53 95.5033H124.156C124.478 95.5033 124.559 95.5837 124.559 95.8663C124.52 96.4544 124.52 97.0443 124.559 97.6324C124.559 97.913 124.478 97.9935 124.156 97.9935H120.54C120.216 97.9935 120.136 98.0739 120.136 98.3977C120.177 100.613 120.177 102.87 120.136 105.087C120.136 106.013 120.297 106.853 121.183 107.344C121.63 107.573 122.129 107.682 122.63 107.661C123.132 107.64 123.619 107.489 124.045 107.222C124.288 107.103 124.488 106.698 124.771 106.82C125.053 106.942 125.092 107.263 125.253 107.505L125.979 108.633C126.101 108.794 126.14 108.874 125.94 109.035C123.884 110.648 120.66 110.77 118.564 109.232C117.19 108.264 116.631 106.895 116.631 105.242V98.4055Z" fill="#9A9A9A"/>
<path d="M144.527 102.609C144.527 107.136 141.305 110.297 137.04 110.297C134.313 110.297 132.021 108.935 130.832 106.614V110.181H129.438V88.6626H130.889V98.4997C132.107 96.2352 134.37 94.9302 137.04 94.9302C141.309 94.9204 144.527 98.0542 144.527 102.609ZM143.075 102.609C143.075 98.8078 140.435 96.2253 136.952 96.2253C133.469 96.2253 130.869 98.8078 130.869 102.609C130.869 106.41 133.481 108.992 136.952 108.992C140.423 108.992 143.075 106.41 143.075 102.609Z" fill="#9A9A9A"/>
<path d="M162.486 95.0364V110.182H161.065V106.614C159.876 108.969 157.582 110.297 154.856 110.297C150.59 110.297 147.37 107.136 147.37 102.609C147.37 98.0819 150.59 94.9207 154.848 94.9207C157.547 94.9207 159.809 96.255 161.028 98.547V95.0364H162.486ZM161.036 102.609C161.036 98.808 158.424 96.2256 154.952 96.2256C151.481 96.2256 148.86 98.808 148.86 102.609C148.86 106.41 151.471 108.992 154.952 108.992C158.434 108.992 161.036 106.41 161.036 102.609Z" fill="#9A9A9A"/>
<path d="M166.375 108.355L167.042 107.193C168.202 108.174 170.262 109.022 172.497 109.022C175.688 109.022 176.966 107.89 176.966 106.178C176.966 101.767 166.926 105.017 166.926 99.069C166.926 96.777 168.84 94.9207 172.67 94.9207C174.585 94.9207 176.675 95.5093 177.864 96.4002L177.197 97.56C175.92 96.6318 174.265 96.1863 172.643 96.1863C169.681 96.1863 168.377 97.4049 168.377 99.0317C168.377 103.586 178.416 100.366 178.416 106.139C178.416 108.606 176.298 110.288 172.439 110.288C169.942 110.297 167.564 109.463 166.375 108.355Z" fill="#9A9A9A"/>
<path d="M193.534 106.875L194.374 107.833C193.04 109.457 190.979 110.297 188.658 110.297C184.074 110.297 180.824 107.107 180.824 102.609C180.824 98.1114 183.901 94.9207 188.195 94.9207C192.227 94.9207 195.1 97.9387 195.304 101.971L182.518 104.465C183.244 107.252 185.593 108.992 188.697 108.992C190.632 108.992 192.372 108.296 193.534 106.875ZM182.247 102.493C182.247 102.784 182.276 103.103 182.304 103.392L193.852 101.129C193.446 98.4312 191.301 96.1962 188.195 96.1962C184.714 96.1962 182.247 98.808 182.247 102.493Z" fill="#9A9A9A"/>
</g>
</g>
<defs>
<clipPath id="clip0_1089_72">
<rect width="200" height="200" fill="white"/>
</clipPath>
<clipPath id="clip1_1089_72">
<rect width="207.02" height="49.7544" fill="white" transform="translate(-3.50977 75.1228)"/>
</clipPath>
</defs>
</svg>
