<svg width="36" height="36" viewBox="0 0 36 36" fill="none" xmlns="http://www.w3.org/2000/svg">
<path d="M3 18C3 12.3431 3 9.51472 4.75736 7.75736C6.51472 6 9.34315 6 15 6H21C26.6569 6 29.4853 6 31.2426 7.75736C33 9.51472 33 12.3431 33 18C33 23.6569 33 26.4853 31.2426 28.2426C29.4853 30 26.6569 30 21 30H15C9.34315 30 6.51472 30 4.75736 28.2426C3 26.4853 3 23.6569 3 18Z" stroke="#E5E5E5" stroke-width="2.5"/>
<path d="M9 13.0588L12.2383 15.7574C14.9933 18.0532 16.3708 19.2011 18 19.2011C19.6292 19.2011 21.0067 18.0532 23.7617 15.7574L27 13.0588" stroke="#E5E5E5" stroke-width="2.5" stroke-linecap="round"/>
</svg>
