<svg width="1772" height="109" viewBox="0 0 1772 109" fill="none" xmlns="http://www.w3.org/2000/svg">
<path d="M1752.11 107V87.416H1771.55V107H1752.11Z" fill="#E3E3E3"/>
<path d="M1654.91 107V2.04199H1674.8V50.696L1721.31 2.04199H1745.64L1704.94 44.576L1746.41 107H1722.84L1691.48 58.499L1674.8 73.187V107H1654.91Z" fill="#E3E3E3"/>
<path d="M1601.56 108.836C1590.85 108.836 1581.67 106.949 1574.02 103.175C1566.47 99.4011 1560.66 93.5361 1556.58 85.5801C1552.6 77.5221 1550.61 67.1691 1550.61 54.5211C1550.61 36.0591 1555.1 22.3911 1564.08 13.5171C1573.05 4.64305 1585.55 0.206055 1601.56 0.206055C1610.23 0.206055 1618.03 1.68505 1624.97 4.64305C1632.01 7.60105 1637.57 12.0891 1641.65 18.1071C1645.83 24.0231 1647.92 31.5711 1647.92 40.7511H1627.57C1627.57 35.6511 1626.45 31.3671 1624.2 27.8991C1622.06 24.3291 1619.05 21.6261 1615.18 19.7901C1611.3 17.9541 1606.86 17.0361 1601.87 17.0361C1594.93 17.0361 1589.17 18.4131 1584.58 21.167C1579.99 23.8191 1576.57 27.7971 1574.33 33.1011C1572.18 38.4051 1571.11 44.9841 1571.11 52.8381V56.2041C1571.11 64.1601 1572.18 70.7901 1574.33 76.0941C1576.57 81.3981 1579.94 85.3761 1584.42 88.0281C1589.01 90.6801 1594.83 92.0061 1601.87 92.0061C1607.17 92.0061 1611.81 91.1391 1615.79 89.4051C1619.77 87.5691 1622.83 84.9171 1624.97 81.4491C1627.21 77.8791 1628.34 73.5441 1628.34 68.4441H1647.92C1647.92 77.6241 1645.88 85.2231 1641.8 91.2411C1637.72 97.1571 1632.16 101.594 1625.12 104.552C1618.19 107.408 1610.33 108.836 1601.56 108.836Z" fill="#E3E3E3"/>
<path d="M1498.95 108.836C1489.77 108.836 1481.87 107.357 1475.24 104.399C1468.61 101.441 1463.51 96.953 1459.94 90.935C1456.47 84.815 1454.74 77.216 1454.74 68.138V2.04199H1474.63V67.526C1474.63 75.584 1476.72 81.704 1480.9 85.886C1485.18 89.966 1491.2 92.006 1498.95 92.006C1506.71 92.006 1512.72 89.966 1517.01 85.886C1521.39 81.704 1523.59 75.584 1523.59 67.526V2.04199H1543.48V68.138C1543.48 77.216 1541.69 84.815 1538.12 90.935C1534.55 96.953 1529.45 101.441 1522.82 104.399C1516.19 107.357 1508.24 108.836 1498.95 108.836Z" fill="#E3E3E3"/>
<path d="M1403.18 108.836C1397.36 108.836 1391.8 108.224 1386.5 107C1381.2 105.674 1376.5 103.685 1372.42 101.033C1368.34 98.2791 1365.13 94.9131 1362.78 90.9351C1360.44 86.8551 1359.27 82.0611 1359.27 76.5531C1359.27 75.9411 1359.27 75.3291 1359.27 74.7171C1359.37 74.1051 1359.42 73.6461 1359.42 73.3401H1379.46C1379.46 73.5441 1379.41 73.9521 1379.31 74.5641C1379.31 75.0741 1379.31 75.5331 1379.31 75.9411C1379.31 79.3071 1380.28 82.214 1382.22 84.662C1384.15 87.008 1386.96 88.8441 1390.63 90.1701C1394.3 91.3941 1398.64 92.0061 1403.64 92.0061C1407 92.0061 1409.96 91.8021 1412.51 91.3941C1415.16 90.9861 1417.41 90.4251 1419.24 89.7111C1421.18 88.8951 1422.76 87.9771 1423.98 86.9571C1425.21 85.8351 1426.08 84.611 1426.59 83.285C1427.2 81.959 1427.5 80.5311 1427.5 79.0011C1427.5 76.0431 1426.59 73.5951 1424.75 71.6571C1422.91 69.7191 1420.41 68.0871 1417.25 66.7611C1414.19 65.4351 1410.67 64.2621 1406.7 63.2421C1402.82 62.1201 1398.79 60.9981 1394.61 59.8761C1390.53 58.7541 1386.5 57.4281 1382.52 55.8981C1378.65 54.2661 1375.13 52.3281 1371.96 50.0841C1368.9 47.8401 1366.46 45.0351 1364.62 41.6691C1362.78 38.2011 1361.87 34.0701 1361.87 29.2761C1361.87 24.3801 1362.89 20.0961 1364.93 16.4241C1367.07 12.7521 1370.03 9.74305 1373.8 7.39705C1377.68 4.94905 1382.16 3.16405 1387.26 2.04205C1392.36 0.818053 1397.92 0.206055 1403.94 0.206055C1409.55 0.206055 1414.8 0.818053 1419.7 2.04205C1424.7 3.16405 1429.08 5.00006 1432.86 7.55005C1436.63 9.99805 1439.59 13.1601 1441.73 17.0361C1443.87 20.8101 1444.95 25.3491 1444.95 30.6531V32.4891H1425.21V30.9591C1425.21 28.0011 1424.29 25.5021 1422.45 23.4621C1420.72 21.4221 1418.22 19.8411 1414.96 18.7191C1411.8 17.5971 1408.07 17.0361 1403.79 17.0361C1399.2 17.0361 1395.27 17.4951 1392.01 18.413C1388.74 19.229 1386.24 20.5041 1384.51 22.2381C1382.78 23.87 1381.91 25.9101 1381.91 28.3581C1381.91 30.9081 1382.83 33.0501 1384.66 34.7841C1386.5 36.5181 1388.95 37.9971 1392.01 39.2211C1395.17 40.4451 1398.69 41.5671 1402.56 42.5871C1406.54 43.6071 1410.57 44.7291 1414.65 45.9531C1418.83 47.0751 1422.86 48.4011 1426.74 49.9311C1430.72 51.4611 1434.24 53.3991 1437.3 55.7451C1440.46 57.9891 1442.96 60.7941 1444.79 64.1601C1446.63 67.5261 1447.55 71.5551 1447.55 76.2471C1447.55 84.1011 1445.61 90.4251 1441.73 95.2191C1437.96 100.013 1432.71 103.481 1425.97 105.623C1419.34 107.765 1411.74 108.836 1403.18 108.836Z" fill="#E3E3E3"/>
<path d="M1285.77 107V19.178H1252.27V2.04199H1339.32V19.178H1305.66V107H1285.77Z" fill="#E3E3E3"/>
<path d="M1233.43 44.729L1230.99 24.533V2.04199H1250.57V24.533L1247.05 44.729H1233.43Z" fill="#E3E3E3"/>
<path d="M1131.78 107V2.04199H1150.75L1195.58 64.007C1196.09 64.619 1196.7 65.486 1197.41 66.608C1198.13 67.628 1198.79 68.648 1199.4 69.668C1200.02 70.688 1200.42 71.504 1200.63 72.116H1201.39C1201.39 70.688 1201.39 69.311 1201.39 67.985C1201.39 66.659 1201.39 65.333 1201.39 64.007V2.04199H1220.52V107H1201.7L1156.72 44.576C1155.9 43.352 1154.93 41.873 1153.81 40.139C1152.79 38.303 1152.08 37.028 1151.67 36.314H1150.9C1150.9 37.64 1150.9 39.017 1150.9 40.445C1150.9 41.771 1150.9 43.148 1150.9 44.576V107H1131.78Z" fill="#E3E3E3"/>
<path d="M1071 108.836C1060.09 108.836 1050.65 106.898 1042.7 103.022C1034.74 99.0441 1028.62 93.0261 1024.34 84.9681C1020.15 76.9101 1018.06 66.7611 1018.06 54.5211C1018.06 42.1791 1020.15 32.0301 1024.34 24.074C1028.62 16.016 1034.74 10.049 1042.7 6.17305C1050.65 2.19505 1060.09 0.206055 1071 0.206055C1082.02 0.206055 1091.45 2.19505 1099.31 6.17305C1107.26 10.049 1113.33 16.016 1117.51 24.074C1121.8 32.0301 1123.94 42.1791 1123.94 54.5211C1123.94 66.7611 1121.8 76.9101 1117.51 84.9681C1113.33 93.0261 1107.26 99.0441 1099.31 103.022C1091.45 106.898 1082.02 108.836 1071 108.836ZM1071 92.0061C1076.31 92.0061 1080.95 91.2411 1084.92 89.7111C1089 88.1811 1092.42 85.937 1095.18 82.979C1097.93 79.919 1100.02 76.1961 1101.45 71.8101C1102.88 67.3221 1103.59 62.1711 1103.59 56.3571V52.9911C1103.59 47.0751 1102.88 41.8731 1101.45 37.3851C1100.02 32.8971 1097.93 29.1741 1095.18 26.2161C1092.42 23.1561 1089 20.8611 1084.92 19.3311C1080.95 17.8011 1076.31 17.0361 1071 17.0361C1065.7 17.0361 1061.01 17.8011 1056.93 19.3311C1052.95 20.8611 1049.58 23.1561 1046.83 26.2161C1044.07 29.1741 1041.98 32.8971 1040.55 37.3851C1039.23 41.8731 1038.57 47.0751 1038.57 52.9911V56.3571C1038.57 62.1711 1039.23 67.3221 1040.55 71.8101C1041.98 76.1961 1044.07 79.919 1046.83 82.979C1049.58 85.937 1052.95 88.1811 1056.93 89.7111C1061.01 91.2411 1065.7 92.0061 1071 92.0061Z" fill="#E3E3E3"/>
<path d="M922.203 107V2.04199H964.278C974.886 2.04199 983.964 3.92899 991.512 7.70299C999.06 11.477 1004.87 17.24 1008.95 24.992C1013.03 32.642 1015.07 42.485 1015.07 54.521C1015.07 66.455 1013.03 76.298 1008.95 84.05C1004.87 91.802 999.06 97.565 991.512 101.339C983.964 105.113 974.886 107 964.278 107H922.203ZM942.093 90.017H964.278C969.174 90.017 973.509 89.303 977.283 87.875C981.057 86.447 984.219 84.356 986.769 81.602C989.319 78.746 991.257 75.227 992.583 71.045C993.909 66.761 994.572 61.814 994.572 56.204V52.991C994.572 47.279 993.909 42.332 992.583 38.15C991.257 33.866 989.319 30.347 986.769 27.593C984.219 24.737 981.057 22.595 977.283 21.167C973.509 19.739 969.174 19.025 964.278 19.025H942.093V90.017Z" fill="#E3E3E3"/>
<path d="M843.969 107V19.178H810.462V2.04199H897.519V19.178H863.859V107H843.969Z" fill="#E3E3E3"/>
<path d="M722.636 107L763.487 2.04199H788.579L829.583 107H808.01L799.595 84.662H751.553L743.138 107H722.636ZM757.826 67.832H793.169L782.612 39.374C782.204 38.354 781.694 37.079 781.082 35.549C780.572 33.917 780.011 32.183 779.399 30.347C778.787 28.409 778.175 26.471 777.563 24.533C776.951 22.595 776.39 20.861 775.88 19.331H775.115C774.503 21.371 773.738 23.717 772.82 26.369C772.004 29.021 771.188 31.52 770.372 33.866C769.556 36.212 768.893 38.048 768.383 39.374L757.826 67.832Z" fill="#E3E3E3"/>
<path d="M632.149 107V2.04199H652.039V44.729H700.999V2.04199H720.889V107H700.999V61.865H652.039V107H632.149Z" fill="#E3E3E3"/>
<path d="M573.834 107V19.178H540.327V2.04199H627.384V19.178H593.724V107H573.834Z" fill="#E3E3E3"/>
<path d="M476.038 108.836C470.224 108.836 464.665 108.224 459.361 107C454.057 105.674 449.365 103.685 445.285 101.033C441.205 98.2791 437.992 94.9131 435.646 90.9351C433.3 86.8551 432.127 82.0611 432.127 76.5531C432.127 75.9411 432.127 75.3291 432.127 74.7171C432.229 74.1051 432.28 73.6461 432.28 73.3401H452.323C452.323 73.5441 452.272 73.9521 452.17 74.5641C452.17 75.0741 452.17 75.5331 452.17 75.9411C452.17 79.3071 453.139 82.214 455.077 84.662C457.015 87.008 459.82 88.8441 463.492 90.1701C467.164 91.3941 471.499 92.0061 476.497 92.0061C479.863 92.0061 482.821 91.8021 485.371 91.3941C488.023 90.9861 490.267 90.4251 492.103 89.7111C494.041 88.8951 495.622 87.9771 496.846 86.9571C498.07 85.8351 498.937 84.611 499.447 83.285C500.059 81.959 500.365 80.5311 500.365 79.0011C500.365 76.0431 499.447 73.5951 497.611 71.6571C495.775 69.7191 493.276 68.0871 490.114 66.7611C487.054 65.4351 483.535 64.2621 479.557 63.2421C475.681 62.1201 471.652 60.9981 467.47 59.8761C463.39 58.7541 459.361 57.4281 455.383 55.8981C451.507 54.2661 447.988 52.3281 444.826 50.0841C441.766 47.8401 439.318 45.0351 437.482 41.6691C435.646 38.2011 434.728 34.0701 434.728 29.2761C434.728 24.3801 435.748 20.0961 437.788 16.4241C439.93 12.7521 442.888 9.74305 446.662 7.39705C450.538 4.94905 455.026 3.16405 460.126 2.04205C465.226 0.818053 470.785 0.206055 476.803 0.206055C482.413 0.206055 487.666 0.818053 492.562 2.04205C497.56 3.16405 501.946 5.00006 505.72 7.55005C509.494 9.99805 512.452 13.1601 514.594 17.0361C516.736 20.8101 517.807 25.3491 517.807 30.6531V32.4891H498.07V30.9591C498.07 28.0011 497.152 25.5021 495.316 23.4621C493.582 21.4221 491.083 19.8411 487.819 18.7191C484.657 17.5971 480.934 17.0361 476.65 17.0361C472.06 17.0361 468.133 17.4951 464.869 18.413C461.605 19.229 459.106 20.5041 457.372 22.2381C455.638 23.87 454.771 25.9101 454.771 28.3581C454.771 30.9081 455.689 33.0501 457.525 34.7841C459.361 36.5181 461.809 37.9971 464.869 39.2211C468.031 40.4451 471.55 41.5671 475.426 42.5871C479.404 43.6071 483.433 44.7291 487.513 45.9531C491.695 47.0751 495.724 48.4011 499.6 49.9311C503.578 51.4611 507.097 53.3991 510.157 55.7451C513.319 57.9891 515.818 60.7941 517.654 64.1601C519.49 67.5261 520.408 71.5551 520.408 76.2471C520.408 84.1011 518.47 90.4251 514.594 95.2191C510.82 100.013 505.567 103.481 498.835 105.623C492.205 107.765 484.606 108.836 476.038 108.836Z" fill="#E3E3E3"/>
<path d="M376.095 108.836C365.181 108.836 355.746 106.898 347.79 103.022C339.834 99.0441 333.714 93.0261 329.43 84.9681C325.248 76.9101 323.157 66.7611 323.157 54.5211C323.157 42.1791 325.248 32.0301 329.43 24.074C333.714 16.016 339.834 10.049 347.79 6.17305C355.746 2.19505 365.181 0.206055 376.095 0.206055C387.111 0.206055 396.546 2.19505 404.4 6.17305C412.356 10.049 418.425 16.016 422.607 24.074C426.891 32.0301 429.033 42.1791 429.033 54.5211C429.033 66.7611 426.891 76.9101 422.607 84.9681C418.425 93.0261 412.356 99.0441 404.4 103.022C396.546 106.898 387.111 108.836 376.095 108.836ZM376.095 92.0061C381.399 92.0061 386.04 91.2411 390.018 89.7111C394.098 88.1811 397.515 85.937 400.269 82.979C403.023 79.919 405.114 76.1961 406.542 71.8101C407.97 67.3221 408.684 62.1711 408.684 56.3571V52.9911C408.684 47.0751 407.97 41.8731 406.542 37.3851C405.114 32.8971 403.023 29.1741 400.269 26.2161C397.515 23.1561 394.098 20.8611 390.018 19.3311C386.04 17.8011 381.399 17.0361 376.095 17.0361C370.791 17.0361 366.099 17.8011 362.019 19.3311C358.041 20.8611 354.675 23.1561 351.921 26.2161C349.167 29.1741 347.076 32.8971 345.648 37.3851C344.322 41.8731 343.659 47.0751 343.659 52.9911V56.3571C343.659 62.1711 344.322 67.3221 345.648 71.8101C347.076 76.1961 349.167 79.919 351.921 82.979C354.675 85.937 358.041 88.1811 362.019 89.7111C366.099 91.2411 370.791 92.0061 376.095 92.0061Z" fill="#E3E3E3"/>
<path d="M235.813 107V2.04199H317.668V19.025H255.703V44.882H310.936V61.865H255.703V90.017H318.586V107H235.813Z" fill="#E3E3E3"/>
<path d="M135.209 107V2.04199H177.284C187.892 2.04199 196.97 3.92899 204.518 7.70299C212.066 11.477 217.88 17.24 221.96 24.992C226.04 32.642 228.08 42.485 228.08 54.521C228.08 66.455 226.04 76.298 221.96 84.05C217.88 91.802 212.066 97.565 204.518 101.339C196.97 105.113 187.892 107 177.284 107H135.209ZM155.099 90.017H177.284C182.18 90.017 186.515 89.303 190.289 87.875C194.063 86.447 197.225 84.356 199.775 81.602C202.325 78.746 204.263 75.227 205.589 71.045C206.915 66.761 207.578 61.814 207.578 56.204V52.991C207.578 47.279 206.915 42.332 205.589 38.15C204.263 33.866 202.325 30.347 199.775 27.593C197.225 24.737 194.063 22.595 190.289 21.167C186.515 19.739 182.18 19.025 177.284 19.025H155.099V90.017Z" fill="#E3E3E3"/>
<path d="M102.739 107V2.04199H122.629V107H102.739Z" fill="#E3E3E3"/>
<path d="M38.9534 107L0.703369 2.04199H22.2764L47.2154 74.258C47.6234 75.278 48.0314 76.451 48.4394 77.777C48.8474 79.103 49.2554 80.378 49.6634 81.602C50.0714 82.724 50.4284 83.744 50.7344 84.662H51.4994C51.8054 83.846 52.1114 82.877 52.4174 81.755C52.8254 80.633 53.2334 79.46 53.6414 78.236C54.0494 76.91 54.4574 75.635 54.8654 74.411L79.6514 2.04199H100.306L62.0564 107H38.9534Z" fill="#E3E3E3"/>
</svg>
